<svg width="15" height="15" viewBox="0 0 15 15"  xmlns="http://www.w3.org/2000/svg">
<path d="M13.9361 0.341797H1.65824C1.17348 0.341797 0.78125 0.73403 0.78125 1.21879V13.4966C0.78125 13.9814 1.17348 14.3736 1.65824 14.3736H13.9361C14.4208 14.3736 14.8131 13.9814 14.8131 13.4966V1.21879C14.8131 0.73403 14.4208 0.341797 13.9361 0.341797ZM6.04318 7.35771C6.04318 7.35771 6.18191 5.60373 7.79716 5.60373C9.41241 5.60373 9.55114 7.35771 9.55114 7.35771C9.55114 7.35771 9.60168 9.11168 7.79716 9.11168C5.99265 9.11168 6.04318 7.35771 6.04318 7.35771ZM13.0591 12.6196H2.53523V6.48072H4.28921H4.41335C4.34059 6.76248 4.28921 7.05282 4.28921 7.35771C4.28921 9.29498 5.85989 10.8657 7.79716 10.8657C9.73443 10.8657 11.3051 9.29495 11.3051 7.35771C11.3051 7.05282 11.2537 6.76248 11.1809 6.48072H11.3051H13.0591V12.6196ZM13.0591 4.72674H10.4281V2.09577H13.0591V4.72674Z" fill="#A5A5A5"/>
</svg>
