<svg width="19" height="19" viewBox="0 0 19 19"  xmlns="http://www.w3.org/2000/svg">
<path fill-rule="evenodd" clip-rule="evenodd" d="M0.548828 2.29883L2.54883 0.298828L18.5488 16.2988L16.5488 18.2988L0.548828 2.29883ZM10.5488 2.29883L11.5488 0.298828L12.5488 2.29883L14.5488 3.29883L12.5488 4.29883L11.5488 6.29883L10.5488 4.29883L8.54883 3.29883L10.5488 2.29883ZM2.54883 12.2988L3.54883 10.2988L4.54883 12.2988L6.54883 13.2988L4.54883 14.2988L3.54883 16.2988L2.54883 14.2988L0.548828 13.2988L2.54883 12.2988ZM1.54883 6.29883L2.54883 7.29883L1.54883 8.29883L0.548828 7.29883L1.54883 6.29883ZM15.5488 7.29883L16.5488 8.29883L15.5488 9.29883L14.5488 8.29883L15.5488 7.29883Z" fill="black"/>
</svg>
