<svg width="238" height="109" viewBox="0 0 238 109" fill="none" xmlns="http://www.w3.org/2000/svg">
<path d="M36.7111 31.2423C36.7111 23.9894 33.3704 18.6155 21.5127 16.248C18.7594 15.6843 15.2352 15.2333 15.2352 14.4442C15.2352 13.9932 16.52 13.6926 18.8695 13.6926C23.8622 13.6926 31.4981 15.0454 35.8667 18.7658V3.09507C31.2411 1.21608 23.642 0.727539 19.4936 0.727539C6.20427 0.727539 0.550781 5.72565 0.550781 15.0079C0.550781 22.0729 3.85476 27.5595 15.6757 29.9646C18.4657 30.5283 22.0267 30.9793 22.0267 31.6557C22.0267 32.257 20.6684 32.52 18.429 32.52C13.3262 32.52 5.69031 31.1672 1.39513 27.4468V43.1175C5.984 44.6959 13.6199 45.1093 17.5112 45.1093C31.0209 45.1093 36.7111 40.1487 36.7111 31.2423Z" fill="#BAFF3B"/>
<path d="M66.8117 44.3201H81.4961V1.47913H66.8117V22.8244C66.8117 28.048 65.1597 29.9646 61.0481 29.9646C56.9365 29.9646 55.1009 28.048 55.1009 22.8244V1.47913H40.4166V22.8996C40.4166 37.5557 45.5561 45.0341 56.2023 45.0341C61.5988 45.0341 65.7471 43.7188 68.3169 37.5933L69.3448 38.0443L66.8117 44.3201Z" fill="#BAFF3B"/>
<path d="M101.294 43.7188L98.7606 38.0818L99.7885 37.6309C102.652 43.7564 107.388 45.0717 113.408 45.0717C125.376 45.0717 131.103 37.6685 131.103 22.9372C131.103 8.20591 125.376 0.727539 113.482 0.727539C108.232 0.727539 104.194 2.19315 101.294 5.04921V1.51671H86.6092V54.1284H101.294V43.7188ZM108.893 30.0022C103.239 30.0022 101.294 28.0856 101.294 22.862C101.294 17.676 103.239 15.7594 108.893 15.7594C114.473 15.7594 116.419 17.7136 116.419 22.862C116.419 28.048 114.473 30.0022 108.893 30.0022Z" fill="#BAFF3B"/>
<path d="M150.23 26.8831H176.883C177.58 24.6283 177.947 22.1856 177.947 19.5174C177.947 8.09318 170.935 0.727539 156.398 0.727539C141.824 0.727539 134.775 8.09318 134.775 22.5614C134.775 37.0296 142.117 44.3201 157.279 44.3201H172.11L176.075 29.2882H156.581C153.204 29.2882 151.222 28.7245 150.23 26.8831ZM164.217 19.7053H149.716C150.414 16.5862 152.58 15.7594 157.059 15.7594C162.235 15.7594 164.217 16.8868 164.217 19.7053Z" fill="#BAFF3B"/>
<path d="M213.865 16.2104L212.727 0.76512C203.219 0.76512 198.667 2.08041 195.509 8.20592L194.481 7.75496L197.015 1.47913H182.33V44.3201H197.015V25.1544C197.015 19.4798 200.172 16.2104 205.458 16.2104H213.865Z" fill="#BAFF3B"/>
<path d="M43.228 107.357H57.9124V83.7949C57.9124 80.6382 59.0871 78.872 61.9138 78.872C64.7406 78.872 65.952 80.6382 65.952 83.7949V107.357H80.6364V80.7886C80.6364 68.9885 76.4147 63.8025 67.1268 63.8025C61.8771 63.8025 58.463 65.456 56.0034 69.928C54.021 65.7191 50.3866 63.8025 44.9901 63.8025C39.4835 63.8025 36.1795 65.7942 33.6831 71.2433L32.6552 70.7923L35.1883 64.5165H20.5039V107.357H35.1883V83.7949C35.1883 80.6382 36.3263 78.872 39.1898 78.872C41.9798 78.872 43.228 80.6382 43.228 83.7949V107.357Z" fill="#BAFF3B"/>
<path d="M101.146 107.357V64.5165H86.4617V107.357H101.146Z" fill="#BAFF3B"/>
<path d="M122.363 64.5165H107.678V107.357H122.363V86.0121C122.363 80.7886 124.198 78.872 128.714 78.872C133.229 78.872 135.248 80.7886 135.248 86.0121V107.357H149.933V85.937C149.933 71.2809 144.573 63.8025 133.486 63.8025C127.869 63.8025 123.537 65.1178 120.858 71.2433L119.83 70.7923L122.363 64.5165Z" fill="#BAFF3B"/>
<path d="M182.403 64.5541L184.936 70.7923L183.908 71.2433C181.155 65.1178 176.566 63.8025 170.729 63.8025C159.165 63.8025 153.622 71.2809 153.622 85.937C153.622 100.743 159.128 108.147 170.655 108.147C175.685 108.147 179.613 106.681 182.403 103.825V107.357H197.087V50.9878H182.403V64.5541ZM175.318 78.872C180.604 78.872 182.403 80.7886 182.403 86.0121C182.403 91.1982 180.604 93.1147 175.318 93.1147C170.141 93.1147 167.278 91.3485 167.278 86.0121C167.278 80.7886 170.141 78.872 175.318 78.872Z" fill="#BAFF3B"/>
<path d="M237.678 94.2797C237.678 87.0268 234.337 81.6529 222.48 79.2854C219.726 78.7217 216.202 78.2707 216.202 77.4815C216.202 77.0306 217.487 76.7299 219.837 76.7299C224.829 76.7299 232.465 78.0828 236.834 81.8032V66.1324C232.208 64.2535 224.609 63.7649 220.461 63.7649C207.171 63.7649 201.518 68.763 201.518 78.0452C201.518 85.1102 204.822 90.5969 216.643 93.002C219.433 93.5657 222.994 94.0166 222.994 94.6931C222.994 95.2943 221.635 95.5574 219.396 95.5574C214.293 95.5574 206.657 94.2045 202.362 90.4841V106.155C206.951 107.733 214.587 108.147 218.478 108.147C231.988 108.147 237.678 103.186 237.678 94.2797Z" fill="#BAFF3B"/>
<path d="M84.5391 61.6517C84.5391 67.1302 88.4706 71.1764 93.8898 71.1764C99.309 71.1764 103.241 67.1302 103.241 61.6517C103.241 56.1731 99.309 52.127 93.8898 52.127C88.4706 52.127 84.5391 56.1731 84.5391 61.6517Z" fill="#BAFF3B" stroke="#242424" stroke-width="4"/>
</svg>
